<svg width="70" height="70" fill="none" xmlns="http://www.w3.org/2000/svg"><path d="M43.164 31.325c-.608 0-1.1.487-1.1 1.087v14.722c0 .6-.493 1.087-1.1 1.087H9.304a1.09 1.09 0 00-1.067 1.354l.822 3.222c.123.483.563.822 1.067.822h35.657c.496 0 .925-.33 1.084-.794.96-2.818 2.688-4.775 5.61-4.838 3.244-.071 5.168 1.999 6.158 4.839.161.463.59.793 1.086.793h2.07c.607 0 1.1-.487 1.1-1.088v-8.548c0-.19-.051-.378-.147-.543l-6.742-11.57a1.102 1.102 0 00-.953-.545H43.164zm3.209 2.699c0-.584.478-1.056 1.068-1.056h5.742c.386 0 .744.2.943.528l5.228 8.62c.44.725-.088 1.647-.943 1.647H47.473c-.608 0-1.1-.487-1.1-1.088v-8.651zm-24.32 20.682H13.53a4.393 4.393 0 004.262 3.263 4.393 4.393 0 004.261-3.263z" fill="#111C2B"/><path d="M52.99 57.969c2.43 0 4.4-1.948 4.4-4.35 0-2.403-1.97-4.35-4.4-4.35-2.43 0-4.399 1.947-4.399 4.35 0 2.402 1.97 4.35 4.4 4.35zM14.567 46.427a.545.545 0 01-.569-.327c-2.49-5.875-3.926-11.02-4.306-15.431-.386-4.506.316-8.3 2.105-11.38 1.351-2.328 2.95-4.132 4.796-5.412 1.844-1.279 3.756-2.136 5.738-2.572a15.207 15.207 0 015.917-.144c1.963.34 3.74.966 5.327 1.878 1.588.912 3.021 2.127 4.3 3.648a15.008 15.008 0 012.833 5.167c.61 1.924.82 4 .63 6.228-.193 2.229-.965 4.507-2.317 6.834-1.79 3.082-4.743 5.582-8.862 7.502-4.031 1.88-9.229 3.216-15.592 4.009zm8.729-15.686c1.07.614 2.21.755 3.42.421 1.207-.333 2.125-1.04 2.753-2.122.629-1.082.786-2.227.473-3.435-.316-1.207-1.008-2.117-2.078-2.732-1.069-.614-2.208-.754-3.416-.421-1.21.333-2.129 1.041-2.757 2.123-.628 1.082-.784 2.226-.47 3.434.314 1.207 1.006 2.118 2.075 2.732z" fill="#111C2B"/></svg>