<svg width="70" height="70" viewBox="0 0 70 70" fill="none" xmlns="http://www.w3.org/2000/svg">
<path d="M43.1636 31.3249C42.5561 31.3249 42.0637 31.8118 42.0637 32.4124V47.1338C42.0637 47.7344 41.5712 48.2213 40.9637 48.2213H9.30365C8.58713 48.2213 8.06188 48.8878 8.23705 49.5747L9.05886 52.7971C9.18205 53.2802 9.62153 53.6187 10.1255 53.6187H45.7831C46.2787 53.6187 46.7084 53.2891 46.8665 52.8248C47.8262 50.0066 49.555 48.0504 52.4772 47.9866C55.7208 47.9158 57.6452 49.986 58.6349 52.8258C58.7963 53.2889 59.2256 53.6187 59.7211 53.6187H61.7907C62.3982 53.6187 62.8906 53.1318 62.8906 52.5312V43.9829C62.8906 43.7924 62.84 43.6052 62.7438 43.4401L56.0023 31.8696C55.806 31.5326 55.4426 31.3249 55.0492 31.3249H43.1636ZM46.3727 34.0236C46.3727 33.4404 46.8509 32.9676 47.4408 32.9676H53.1828C53.5693 32.9676 53.9274 33.1681 54.1261 33.4958L59.3543 42.1157C59.7939 42.8406 59.2658 43.7625 58.4109 43.7625H47.4727C46.8652 43.7625 46.3727 43.2756 46.3727 42.675V34.0236Z" fill="#111C2B"/>
<path d="M22.053 54.7062H13.5304C14.0188 56.5824 15.7415 57.9688 17.7917 57.9688C19.8419 57.9688 21.5645 56.5824 22.053 54.7062Z" fill="#111C2B"/>
<path d="M52.9909 57.9688C55.4209 57.9688 57.3908 56.0212 57.3908 53.6187C57.3908 51.2163 55.4209 49.2687 52.9909 49.2687C50.5609 49.2687 48.591 51.2163 48.591 53.6187C48.591 56.0212 50.5609 57.9688 52.9909 57.9688Z" fill="#111C2B"/>
<path d="M14.567 46.4268C14.3257 46.4568 14.0929 46.3232 13.9984 46.1004C11.5073 40.2247 10.0719 35.0808 9.69236 30.6686C9.30601 26.1633 10.0075 22.3699 11.7968 19.2883C13.1484 16.9608 14.7471 15.1572 16.5929 13.8775C18.4368 12.5983 20.3495 11.7408 22.3312 11.3048C24.3128 10.8689 26.2852 10.821 28.2484 11.1611C30.2115 11.5013 31.9871 12.1272 33.5752 13.0388C35.1632 13.9505 36.5962 15.1665 37.8741 16.6868C39.1519 18.2071 40.0964 19.9295 40.7075 21.8538C41.3186 23.7782 41.5287 25.8544 41.3378 28.0823C41.1448 30.3109 40.3725 32.5889 39.021 34.9165C37.2317 37.998 34.2777 40.4984 30.1591 42.4176C26.1276 44.2976 20.9303 45.634 14.567 46.4268ZM23.296 30.7412C24.3655 31.3552 25.5053 31.4955 26.7153 31.162C27.9232 30.8291 28.8413 30.1218 29.4694 29.04C30.0976 27.9581 30.255 26.8133 29.9418 25.6054C29.6265 24.3981 28.934 23.4875 27.8645 22.8735C26.795 22.2595 25.6563 22.119 24.4483 22.4519C23.2383 22.7853 22.3193 23.493 21.6911 24.5748C21.0629 25.6566 20.9065 26.8012 21.2218 28.0085C21.5351 29.2163 22.2265 30.1273 23.296 30.7412Z" fill="#111C2B"/>
</svg>
